<?xml version="1.0" standalone="no"?>
<!DOCTYPE svg PUBLIC "-//W3C//DTD SVG 20010904//EN"
 "http://www.w3.org/TR/2001/REC-SVG-20010904/DTD/svg10.dtd">
<svg version="1.0" xmlns="http://www.w3.org/2000/svg"
 width="512.000000pt" height="512.000000pt" viewBox="0 0 512.000000 512.000000"
 preserveAspectRatio="xMidYMid meet">

<g transform="translate(0.000000,512.000000) scale(0.100000,-0.100000)"
fill="#000000" stroke="none">
<path d="M673 3186 c-59 -19 -104 -49 -152 -101 -62 -68 -84 -124 -85 -220 -1
-71 3 -88 32 -147 57 -116 151 -179 294 -197 92 -11 132 -32 173 -89 56 -81
35 -203 -48 -263 -47 -34 -114 -46 -168 -30 -74 22 -139 100 -139 165 0 87
-102 127 -140 55 -30 -55 19 -198 92 -272 65 -64 127 -91 223 -95 142 -6 247
54 316 180 31 58 34 70 34 153 0 83 -3 95 -34 153 -19 35 -54 81 -79 102 -50
44 -135 80 -190 80 -91 0 -167 42 -203 112 -17 33 -20 55 -17 104 5 76 38 125
109 162 114 60 259 -23 276 -159 10 -82 75 -116 123 -64 20 21 22 31 17 80
-12 117 -88 224 -195 273 -67 31 -175 39 -239 18z"/>
<path d="M1269 3181 l-24 -19 -3 -544 c-2 -361 0 -555 8 -579 11 -41 53 -66
89 -54 42 13 51 52 51 227 l1 163 43 37 43 36 119 -206 c124 -215 158 -262
194 -262 28 0 70 43 70 72 0 13 -63 131 -139 262 l-138 240 114 110 c123 120
132 138 88 181 -43 44 -65 34 -183 -74 -59 -54 -129 -122 -157 -150 l-50 -52
-5 296 -5 297 -24 19 c-30 24 -62 24 -92 0z"/>
<path d="M2065 3175 l-25 -24 0 -561 0 -561 25 -24 c30 -30 54 -31 89 -4 l26
20 0 570 c0 556 0 569 -20 589 -27 27 -66 25 -95 -5z"/>
<path d="M2355 3176 l-25 -25 0 -550 c0 -336 4 -560 10 -576 22 -57 109 -52
129 7 7 19 11 129 11 278 l0 247 118 6 c144 6 196 23 266 88 74 67 100 130
101 234 0 96 -24 155 -93 223 -76 77 -110 86 -314 90 l-177 4 -26 -26z m373
-137 c104 -51 130 -180 55 -270 -43 -50 -71 -59 -193 -59 l-110 0 0 175 0 175
102 0 c83 0 110 -4 146 -21z"/>
<path d="M3606 3066 l-26 -25 0 -451 c0 -437 1 -451 20 -470 45 -45 59 -36
308 213 196 196 232 237 232 261 0 25 -35 65 -227 257 -146 146 -238 230 -255
235 -21 4 -33 0 -52 -20z"/>
<path d="M4175 3065 l-25 -24 0 -448 c0 -501 -1 -493 65 -493 66 0 65 -8 65
496 l0 453 -26 20 c-34 27 -50 26 -79 -4z"/>
</g>
</svg>
