<?xml version="1.0" standalone="no"?>
<!DOCTYPE svg PUBLIC "-//W3C//DTD SVG 20010904//EN"
 "http://www.w3.org/TR/2001/REC-SVG-20010904/DTD/svg10.dtd">
<svg version="1.0" xmlns="http://www.w3.org/2000/svg"
 width="32.000000pt" height="32.000000pt" viewBox="0 0 32.000000 32.000000"
 preserveAspectRatio="xMidYMid meet">
<metadata>
Created by potrace 1.10, written by Peter Selinger 2001-2011
</metadata>
<g transform="translate(0.000000,32.000000) scale(0.100000,-0.100000)"
fill="#ed0c0c" stroke="none">
<path d="M20 300 c-11 -11 -20 -25 -20 -30 0 -6 21 -33 46 -60 l47 -50 -47
-50 c-25 -27 -46 -54 -46 -60 0 -13 37 -50 50 -50 6 0 33 21 60 46 l50 47 50
-47 c27 -25 54 -46 60 -46 13 0 50 37 50 50 0 6 -21 33 -46 60 l-47 50 47 50
c25 27 46 54 46 60 0 13 -37 50 -50 50 -6 0 -33 -21 -60 -46 l-50 -47 -50 47
c-27 25 -54 46 -60 46 -5 0 -19 -9 -30 -20z m87 -62 l53 -52 55 54 c43 43 57
52 67 42 10 -10 1 -24 -42 -67 l-54 -55 54 -55 c43 -43 52 -57 42 -67 -10 -10
-24 -1 -67 42 l-55 54 -55 -54 c-43 -43 -57 -52 -67 -42 -10 10 -1 24 42 67
l54 55 -53 54 c-29 30 -50 59 -47 65 11 17 17 14 73 -41z"/>
</g>
</svg>
