<?xml version="1.0" standalone="no"?>
<!DOCTYPE svg PUBLIC "-//W3C//DTD SVG 20010904//EN"
 "http://www.w3.org/TR/2001/REC-SVG-20010904/DTD/svg10.dtd">
<svg version="1.0" xmlns="http://www.w3.org/2000/svg"
 width="32.000000pt" height="32.000000pt" viewBox="0 0 32.000000 32.000000"
 preserveAspectRatio="xMidYMid meet">
<metadata>
Created by potrace 1.10, written by Peter Selinger 2001-2011
</metadata>
<g transform="translate(0.000000,32.000000) scale(0.100000,-0.100000)"
fill="#18ec09" stroke="none">
<path d="M45 265 c-15 -14 -25 -36 -25 -53 0 -37 48 -109 100 -151 l40 -32 40
32 c52 42 100 114 100 151 0 35 -40 78 -72 78 -13 0 -34 -7 -46 -16 -20 -14
-24 -14 -44 0 -32 23 -65 20 -93 -9z m60 -15 c6 -10 -33 -60 -47 -60 -14 0 -9
33 9 52 18 20 29 23 38 8z m146 -10 c18 -10 27 -40 12 -40 -10 1 -53 36 -53
44 0 9 19 7 41 -4z m-105 -36 c-5 -13 -10 -14 -18 -6 -6 6 -8 18 -4 28 5 13
10 14 18 6 6 -6 8 -18 4 -28z m50 0 c-5 -13 -10 -14 -18 -6 -6 6 -8 18 -4 28
5 13 10 14 18 6 6 -6 8 -18 4 -28z m-86 -20 c0 -8 -7 -14 -15 -14 -15 0 -21
21 -9 33 10 9 24 -2 24 -19z m130 0 c0 -8 -7 -14 -15 -14 -15 0 -21 21 -9 33
10 9 24 -2 24 -19z m-40 -18 c6 -8 10 -25 8 -38 -3 -20 -9 -23 -48 -23 -39 0
-45 3 -48 23 -2 13 2 30 8 38 16 18 64 18 80 0z"/>
</g>
</svg>
