 <svg  version="1.0" xmlns="http://www.w3.org/2000/svg"  width="96.000000pt" height="96.000000pt" viewBox="0 0 96.000000 96.000000"  preserveAspectRatio="xMidYMid meet">  <g transform="translate(0.000000,96.000000) scale(0.100000,-0.100000)" fill="#06eacf" stroke="none"> <path d="M290 901 c-8 -4 -33 -17 -55 -27 -51 -24 -145 -118 -169 -169 -10 -22 -23 -48 -27 -57 -12 -23 -12 -333 0 -356 4 -9 17 -35 27 -57 24 -51 118 -145 169 -169 22 -10 48 -23 57 -27 10 -5 90 -9 178 -9 152 0 168 2 220 32 8 4 25 12 38 18 29 13 119 103 132 132 6 13 14 30 18 38 30 52 32 68 32 220 0 88 -4 168 -9 178 -4 9 -17 35 -27 57 -27 57 -122 148 -187 179 -53 25 -63 26 -219 25 -90 0 -170 -4 -178 -8z m285 -60 c21 -12 44 -21 50 -21 5 0 38 -23 72 -51 64 -52 115 -122 128 -174 3 -16 17 -53 31 -81 l24 -51 -39 -87 c-48 -102 -90 -166 -126 -190 -29 -19 -50 -12 -25 7 32 25 48 71 43 122 -5 44 -1 59 32 119 43 79 40 97 -22 171 -26 32 -45 45 -63 45 -30 0 -63 21 -103 67 -16 18 -43 42 -62 53 -31 19 -35 20 -73 5 -21 -9 -62 -40 -89 -69 -36 -37 -63 -56 -94 -65 -35 -10 -52 -23 -82 -63 -20 -28 -37 -57 -37 -66 0 -8 15 -38 32 -66 29 -45 33 -60 34 -124 0 -57 5 -77 21 -95 33 -36 36 -47 14 -47 -41 0 -181 220 -181 284 0 58 132 295 165 296 6 1 26 14 45 30 19 17 38 30 42 30 5 0 25 8 46 17 83 38 148 39 217 4z m-61 -158 c10 -21 25 -53 34 -72 20 -41 53 -55 111 -47 33 5 49 2 63 -11 30 -27 21 -47 -41 -99 -68 -56 -73 -74 -40 -148 23 -53 20 -72 -13 -85 -23 -9 -38 -3 -103 39 -60 39 -45 42 -153 -27 -34 -21 -70 -20 -84 1 -10 14 1 65 18 91 15 20 19 85 7 85 -5 1 -34 24 -66 53 l-58 52 21 28 c20 25 26 27 68 21 81 -10 97 3 147 119 13 30 21 37 43 37 22 0 31 -8 46 -37z m46 -528 c39 -13 45 -32 15 -49 -11 -6 -31 -19 -44 -28 -30 -23 -92 -23 -122 0 -13 9 -33 22 -44 28 -33 19 -23 38 30 56 52 18 98 16 165 -7z"/> </g> </svg> 